<svg width="24" height="32" viewBox="0 0 24 32" fill="none" xmlns="http://www.w3.org/2000/svg">
<path d="M6.04266 22.6624C5.50195 22.1193 5.78381 22.2724 4.47964 21.9218C3.8879 21.7624 3.36772 21.4562 2.89732 21.0893L0.0743013 28.0418C-0.198854 28.7149 0.311368 29.4462 1.03439 29.4187L4.31288 29.2931L6.56781 31.6856C7.06559 32.2131 7.93919 32.0487 8.21235 31.3756L11.451 23.3993C10.7765 23.7768 10.028 23.9981 9.25395 23.9981C8.04061 23.9981 6.9007 23.5237 6.04266 22.6624ZM23.8183 28.0418L20.9953 21.0893C20.5249 21.4568 20.0047 21.7624 19.413 21.9218C18.1019 22.2743 18.3894 22.1206 17.85 22.6624C16.9919 23.5237 15.8514 23.9981 14.638 23.9981C13.864 23.9981 13.1155 23.7762 12.441 23.3993L15.6796 31.3756C15.9528 32.0487 16.827 32.2131 17.3242 31.6856L19.5797 29.2931L22.8582 29.4187C23.5812 29.4462 24.0915 28.7143 23.8183 28.0418ZM16.3641 21.2481C17.3148 20.2762 17.4237 20.3599 18.7777 19.9893C19.642 19.7524 20.3177 19.0618 20.5492 18.1781C21.0146 16.4031 20.8939 16.6174 22.1638 15.3187C22.7966 14.6718 23.0436 13.7287 22.8122 12.8449C22.3474 11.0712 22.3468 11.3187 22.8122 9.54306C23.0436 8.65931 22.7966 7.71619 22.1638 7.06931C20.8939 5.77056 21.0146 5.98431 20.5492 4.20994C20.3177 3.32619 19.642 2.63556 18.7777 2.39869C17.0429 1.92306 17.252 2.04744 15.9808 0.748062C15.348 0.101188 14.4252 -0.151937 13.561 0.0849375C11.8268 0.559937 12.0689 0.560562 10.3316 0.0849375C9.46737 -0.151937 8.54461 0.100563 7.91181 0.748062C6.64186 2.04681 6.85092 1.92306 5.11555 2.39869C4.25128 2.63556 3.57555 3.32619 3.34408 4.20994C2.87928 5.98431 2.99937 5.77056 1.72941 7.06931C1.09661 7.71619 0.848968 8.65931 1.08106 9.54306C1.54586 11.3156 1.54648 11.0681 1.08106 12.8443C0.84959 13.7281 1.09661 14.6712 1.72941 15.3187C2.99937 16.6174 2.87866 16.4031 3.34408 18.1781C3.57555 19.0618 4.25128 19.7524 5.11555 19.9893C6.50808 20.3706 6.61199 20.3106 7.52852 21.2481C8.35173 22.0899 9.63413 22.2406 10.6235 21.6118C11.0191 21.3595 11.478 21.2256 11.9466 21.2256C12.4152 21.2256 12.8742 21.3595 13.2698 21.6118C14.2585 22.2406 15.5409 22.0899 16.3641 21.2481ZM6.07626 10.9956C6.07626 7.68119 8.70452 4.99431 11.9463 4.99431C15.1881 4.99431 17.8163 7.68119 17.8163 10.9956C17.8163 14.3099 15.1881 16.9968 11.9463 16.9968C8.70452 16.9968 6.07626 14.3099 6.07626 10.9956Z" fill="#FFA62B"/>
</svg>
