<svg width="20" height="20" viewBox="0 0 20 20" fill="none" xmlns="http://www.w3.org/2000/svg">
<path d="M5.03239 12.1308L3.66571 18.0488C3.62339 18.228 3.6361 18.4158 3.70217 18.5877C3.76824 18.7596 3.8846 18.9075 4.03606 19.0122C4.18752 19.1169 4.36704 19.1735 4.55117 19.1746C4.73529 19.1757 4.91547 19.1212 5.06816 19.0183L10.0625 15.6888L15.0568 19.0183C15.2131 19.1221 15.3973 19.1755 15.5848 19.1714C15.7723 19.1673 15.9541 19.1058 16.1056 18.9953C16.2571 18.8849 16.3712 18.7306 16.4325 18.5534C16.4937 18.3761 16.4993 18.1844 16.4483 18.0039L14.7707 12.1336L18.9312 8.38944C19.0645 8.26946 19.1597 8.11304 19.205 7.93955C19.2503 7.76605 19.2437 7.58308 19.1861 7.41327C19.1286 7.24345 19.0225 7.09424 18.881 6.98408C18.7395 6.87392 18.5688 6.80764 18.3901 6.79345L13.1609 6.37703L10.8981 1.36801C10.826 1.20672 10.7087 1.06976 10.5604 0.973657C10.4121 0.877554 10.2392 0.826416 10.0625 0.826416C9.88581 0.826416 9.71289 0.877554 9.56462 0.973657C9.41635 1.06976 9.29906 1.20672 9.2269 1.36801L6.96409 6.37703L1.73493 6.79254C1.55924 6.80645 1.39128 6.87069 1.25114 6.97757C1.11101 7.08445 1.00463 7.22943 0.94473 7.39518C0.884835 7.56094 0.87396 7.74044 0.913408 7.91221C0.952856 8.08398 1.04095 8.24074 1.16717 8.36376L5.03239 12.1308ZM7.64926 8.16288C7.81298 8.14998 7.97022 8.09328 8.10449 7.99871C8.23875 7.90414 8.34511 7.77519 8.4124 7.62538L10.0625 3.97387L11.7126 7.62538C11.7799 7.77519 11.8863 7.90414 12.0205 7.99871C12.1548 8.09328 12.312 8.14998 12.4757 8.16288L16.119 8.45181L13.1187 11.1521C12.8582 11.387 12.7546 11.7484 12.85 12.0859L13.9993 16.108L10.5725 13.8231C10.4221 13.7222 10.245 13.6683 10.0639 13.6683C9.88273 13.6683 9.70568 13.7222 9.55527 13.8231L5.97439 16.2107L6.93749 12.0409C6.9728 11.8876 6.96806 11.7277 6.92372 11.5767C6.87939 11.4257 6.79695 11.2887 6.68433 11.1787L3.89777 8.4619L7.64926 8.16288Z" fill="#F3CD03"/>
</svg>
