<svg width="23" height="22" viewBox="0 0 23 22" fill="none" xmlns="http://www.w3.org/2000/svg">
<path d="M20.6452 8.41256C20.5876 8.24274 20.4814 8.09353 20.34 7.98335C20.1985 7.87316 20.0278 7.80681 19.8491 7.79251L14.6199 7.377L12.3571 2.36798C12.285 2.20665 12.1678 2.06963 12.0196 1.97344C11.8714 1.87726 11.6985 1.82602 11.5218 1.82593C11.3451 1.82583 11.1721 1.87687 11.0238 1.9729C10.8755 2.06892 10.7581 2.20582 10.6859 2.36707L8.42307 7.377L3.19392 7.79251C3.01823 7.80642 2.85027 7.87066 2.71013 7.97754C2.56999 8.08442 2.46361 8.2294 2.40371 8.39516C2.34382 8.56091 2.33294 8.74041 2.37239 8.91218C2.41184 9.08395 2.49994 9.24072 2.62615 9.36373L6.49046 13.1308L5.12378 19.0488C5.08228 19.2279 5.09558 19.4154 5.16195 19.5869C5.22833 19.7584 5.34471 19.9059 5.49599 20.0105C5.64728 20.115 5.82649 20.1716 6.01036 20.173C6.19424 20.1744 6.37429 20.1205 6.52715 20.0183L11.5215 16.6888L16.5158 20.0183C16.6721 20.1221 16.8563 20.1755 17.0438 20.1713C17.2313 20.1672 17.413 20.1058 17.5646 19.9953C17.7161 19.8848 17.8302 19.7306 17.8915 19.5533C17.9527 19.3761 17.9582 19.1843 17.9073 19.0039L16.2296 13.1336L20.3902 9.38941C20.6626 9.14359 20.7626 8.76019 20.6452 8.41256Z" fill="#F3CD03"/>
</svg>
