<svg width="30" height="27" viewBox="0 0 30 27" fill="none" xmlns="http://www.w3.org/2000/svg">
<g clip-path="url(#clip0_993_370)">
<path d="M14.9039 12.7044C17.5044 12.7044 19.5269 10.5697 19.5269 7.94993C19.5269 5.33011 17.408 3.29248 14.8076 3.29248C12.2071 3.29248 10.1846 5.42715 10.1846 7.94993C10.1846 10.5697 12.3035 12.7044 14.9039 12.7044ZM14.8076 5.23309C14.9039 5.23309 14.9039 5.23309 14.8076 5.23309C16.3486 5.23309 17.6007 6.49448 17.6007 8.04696C17.6007 9.59945 16.3486 10.7638 14.8076 10.7638C13.2666 10.7638 12.1108 9.50242 12.1108 8.04696C12.1108 6.49448 13.3629 5.23309 14.8076 5.23309Z" fill="#FFA62B"/>
<path d="M29.158 12.122C27.3281 10.4725 24.9203 9.59924 22.4161 9.69627H21.6456C21.453 10.4725 21.1641 11.1517 20.7788 11.7339C21.3567 11.6369 21.8383 11.6369 22.4161 11.6369C24.2461 11.5398 26.076 12.122 27.5207 13.1894V20.1755H29.447V12.4131L29.158 12.122Z" fill="#FFA62B"/>
<path d="M20.2009 3.4859C20.6825 2.32154 22.0309 1.73936 23.2829 2.22451C24.4387 2.70966 25.0166 4.06808 24.535 5.32947C24.1498 6.20275 23.2829 6.78493 22.4161 6.78493C22.2235 6.78493 21.9346 6.78493 21.7419 6.6879C21.8382 7.17305 21.8382 7.6582 21.8382 8.04632V8.6285C22.0309 8.6285 22.2235 8.72553 22.4161 8.72553C24.8239 8.72553 26.7502 6.78493 26.7502 4.4562C26.7502 2.03045 24.8239 0.0898438 22.5124 0.0898438C20.9714 0.0898438 19.623 0.866085 18.8525 2.22451C19.3341 2.5156 19.8157 2.90372 20.2009 3.4859Z" fill="#FFA62B"/>
<path d="M9.22139 11.8306C8.83614 11.2484 8.5472 10.5692 8.35457 9.79296H7.58407C5.07993 9.69593 2.67211 10.5692 0.842161 12.1217L0.553223 12.4128V20.1752H2.47948V13.189C4.02049 12.1217 5.75412 11.5395 7.58407 11.6365C8.16195 11.6365 8.73982 11.7336 9.22139 11.8306Z" fill="#FFA62B"/>
<path d="M7.58371 8.62915C7.77634 8.62915 7.96896 8.62915 8.16159 8.53212V7.94994C8.16159 7.46479 8.16159 6.97963 8.2579 6.59151C8.06528 6.68854 7.77634 6.68854 7.58371 6.68854C6.33165 6.68854 5.2722 5.62121 5.2722 4.35982C5.2722 3.09843 6.33165 2.03109 7.58371 2.03109C8.54684 2.03109 9.41366 2.61327 9.79891 3.48655C10.1842 3.0014 10.762 2.51624 11.2436 2.12812C9.99154 0.0904882 7.39109 -0.588723 5.36852 0.67267C3.34595 1.93406 2.67176 4.55388 3.92382 6.59151C4.69433 7.85291 6.04271 8.62915 7.58371 8.62915Z" fill="#FFA62B"/>
<path d="M22.8013 17.9435L22.6087 17.6524C20.6824 15.5177 17.9857 14.2563 15.0963 14.3534C12.2069 14.2563 9.41381 15.5177 7.48755 17.6524L7.29492 17.9435V25.3178C7.29492 26.1911 7.96911 26.9673 8.93224 26.9673H21.2603C22.1271 26.9673 22.8976 26.1911 22.8976 25.3178V17.9435H22.8013ZM20.875 25.0267H9.22118V18.6227C10.7622 17.0702 12.8811 16.294 15.0963 16.294C17.2152 16.1969 19.334 17.0702 20.875 18.6227V25.0267Z" fill="#FFA62B"/>
</g>
<defs>
<clipPath id="clip0_993_370">
<rect width="29" height="27" fill="white" transform="translate(0.5)"/>
</clipPath>
</defs>
</svg>
